# File created by Blade
# Date/Time:  Thu Sep 25 19:36:54 2014
# Frame Rate: 120.000 fps
#------------------------------------------------------
:FULLY-SPECIFIED
:DEGREES
506
root 1.181040 34.348166 -0.741613 95.160676 -1.873696 -32.656090
Spine -33.423562 -1.540692 19.023454
Head -52.550442 35.786725 11.265719
LeftShoulder -13.890478 3.356337 45.024495
LeftArm 44.540501 -44.971783 -18.054205
LeftForeArm 12.871198 -0.000000 15.609732
LeftHand -27.111761 -0.000000 -1.492433
LeftHandThumb1 -26.253704 0.000000 33.147579
RightShoulder -27.076072 0.519678 -31.263724
RightArm -27.810592 -24.293454 51.709460
RightForeArm -40.823451 -0.000000 12.031005
RightHand -1.875207 0.000000 24.440894
RightHandThumb1 -24.326973 -0.000000 -32.862282
LeftUpLeg -93.435499 26.340804 -1.677635
LeftLeg -3.179076 -0.000000 0.000000
LeftFoot -4.367993 11.198362 -9.389149
LeftToeBase 6.727115 -0.000000 -0.000000
RightUpLeg 17.074442 20.497331 -31.385151
RightLeg 100.033436 -0.000000 -0.000000
RightFoot 33.228218 -14.153849 17.286481
RightToeBase 6.414659 -0.000000 -0.000000
507
root 1.195009 34.354199 -0.747673 95.327528 -1.858607 -32.557295
Spine -33.476468 -1.598050 18.853423
Head -52.686422 35.743560 11.279662
LeftShoulder -13.931233 3.284598 45.095266
LeftArm 44.599640 -44.989008 -17.953452
LeftForeArm 13.022411 -0.000000 15.676481
LeftHand -27.159994 -0.000000 -1.587316
LeftHandThumb1 -26.253704 0.000000 33.147579
RightShoulder -27.073060 0.491877 -31.207265
RightArm -27.923090 -24.163155 51.740634
RightForeArm -40.912093 -0.000000 12.002538
RightHand -1.808835 -0.000000 24.416841
RightHandThumb1 -24.326973 -0.000000 -32.862282
LeftUpLeg -93.652566 26.237351 -2.065007
LeftLeg -3.448335 -0.000000 0.000000
LeftFoot -4.090776 10.771364 -9.684839
LeftToeBase 6.666882 -0.000000 -0.000000
RightUpLeg 17.094402 20.352568 -31.477842
RightLeg 100.067717 -0.000000 -0.000000
RightFoot 33.283261 -14.093572 17.394391
RightToeBase 6.611171 -0.000000 -0.000000
508
root 1.206523 34.355813 -0.753870 95.455609 -1.828616 -32.448292
Spine -33.514577 -1.646588 18.708083
Head -52.748620 35.708442 11.272742
LeftShoulder -13.992162 3.381609 45.126327
LeftArm 44.863095 -45.141920 -18.014589
LeftForeArm 13.106662 -0.000000 15.650343
LeftHand -27.211136 -0.000000 -1.541225
LeftHandThumb1 -26.253704 0.000000 33.147579
RightShoulder -27.072177 0.494077 -31.212894
RightArm -28.084512 -24.048209 51.792572
RightForeArm -40.877390 -0.000000 11.972213
RightHand -1.779181 0.000000 24.316370
RightHandThumb1 -24.326973 -0.000000 -32.862282
LeftUpLeg -93.768881 26.116522 -2.341502
LeftLeg -3.754115 -0.000000 0.000000
LeftFoot -3.756766 10.438339 -9.816152
LeftToeBase 6.324686 -0.000000 -0.000000
RightUpLeg 17.178130 20.216691 -31.545761
RightLeg 100.069944 -0.000000 -0.000000
RightFoot 33.223017 -14.102381 17.544162
RightToeBase 6.657226 -0.000000 -0.000000
509
root 1.219861 34.355576 -0.760525 95.580650 -1.814147 -32.346347
Spine -33.560736 -1.723541 18.573674
Head -52.757613 35.670130 11.310082
LeftShoulder -14.009154 3.361396 45.177769
LeftArm 44.849497 -45.114022 -17.831777
LeftForeArm 13.155487 -0.000000 15.720226
LeftHand -27.259033 -0.000000 -1.557291
LeftHandThumb1 -26.253704 0.000000 33.147579
RightShoulder -27.045418 0.546277 -31.257786
RightArm -28.249390 -23.991572 51.863077
RightForeArm -40.891576 -0.000000 11.948279
RightHand -1.834780 0.000000 24.335310
RightHandThumb1 -24.326973 -0.000000 -32.862282
LeftUpLeg -93.870746 25.998588 -2.603419
LeftLeg -4.064554 -0.000000 0.000000
LeftFoot -3.607177 10.186754 -10.231848
LeftToeBase 6.546953 -0.000000 -0.000000
RightUpLeg 17.262313 20.107358 -31.628169
RightLeg 100.031284 -0.000000 -0.000000
RightFoot 33.333812 -14.050174 17.530426
RightToeBase 6.275046 -0.000000 -0.000000
510
root 1.229413 34.353574 -0.763945 95.724759 -1.747282 -32.282506
Spine -33.649045 -1.747621 18.533907
Head -52.642256 35.579556 11.373174
LeftShoulder -14.038046 3.405735 45.224118
LeftArm 44.970432 -45.140761 -17.836591
LeftForeArm 13.321155 -0.000000 15.721895
LeftHand -27.238917 -0.000000 -1.788727
LeftHandThumb1 -26.253704 0.000000 33.147579
RightShoulder -26.979504 0.557029 -31.298200
RightArm -28.408168 -23.950525 51.892036
RightForeArm -40.863822 0.000000 11.963616
RightHand -1.796935 -0.000000 24.162862
RightHandThumb1 -24.326973 -0.000000 -32.862282
LeftUpLeg -93.953253 25.923235 -2.738946
LeftLeg -4.374909 -0.000000 0.000000
LeftFoot -3.403438 10.026108 -10.454312
LeftToeBase 6.491571 -0.000000 -0.000000
RightUpLeg 17.315112 20.043323 -31.651316
RightLeg 99.997868 -0.000000 -0.000000
RightFoot 33.191579 -14.106935 17.796326
RightToeBase 6.623831 -0.000000 -0.000000
511
root 1.238924 34.345978 -0.769421 95.810459 -1.702427 -32.240307
Spine -33.671709 -1.782469 18.453996
Head -52.536212 35.530536 11.458188
LeftShoulder -14.076255 3.439414 45.264307
LeftArm 45.089576 -45.144128 -17.783238
LeftForeArm 13.372629 0.000000 15.728475
LeftHand -27.309078 -0.000000 -1.559292
LeftHandThumb1 -26.253704 0.000000 33.147579
RightShoulder -26.949009 0.511346 -31.276503
RightArm -28.433350 -23.925346 51.871435
RightForeArm -40.897795 -0.000000 11.978463
RightHand -1.879522 0.000000 24.277473
RightHandThumb1 -24.326973 -0.000000 -32.862282
LeftUpLeg -93.938858 25.869832 -2.766881
LeftLeg -4.666078 -0.000000 0.000000
LeftFoot -3.283380 10.012939 -10.518184
LeftToeBase 6.474428 -0.000000 -0.000000
RightUpLeg 17.417277 20.038366 -31.685023
RightLeg 99.916465 -0.000000 -0.000000
RightFoot 33.189300 -14.128562 17.857800
RightToeBase 6.506466 -0.000000 -0.000000
